PathFileType	4	(X/Y/Z)	C:/Users/beibeiliu/ov580/test_trc/User3\sequence.29_training_dense_right.trc
DataRate	CameraRate	NumFrames	NumMarkers	Units	OrigDataRate	OrigDataStartFrame	OrigNumFrames
120	120	8	19	mm	120	131	260
Frame#	Time	ThumbCMC			ThumbMCP			ThumbIP			ThumbTip			IndexMCP			IndexPIP			IndexTip			MiddleMCP			MiddlePIP			MiddleTip			RingMCP			RingPIP			RingTip			PinkyMCP			PinkyPIP			PinkyTip			BackHand1			BackHand2			BackHand3	
		X0	Y0	Z0	X1	Y1	Z1	X2	Y2	Z2	X3	Y3	Z3	X4	Y4	Z4	X5	Y5	Z5	X6	Y6	Z6	X7	Y7	Z7	X8	Y8	Z8	X9	Y9	Z9	X10	Y10	Z10	X11	Y11	Z11	X12	Y12	Z12	X13	Y13	Z13	X14	Y14	Z14	X15	Y15	Z15	X16	Y16	Z16	X17	Y17	Z17	X18	Y18	Z18	
130	1.08333	206.768	-9.33541	20.1084	208.644	-2.98708	-13.8276	201.81	-4.94184	-41.8604	190.534	-6.43111	-61.9904	177.856	-23.5393	-49.2069	161.27	2.83334	-45.1241	171.007	-4.11113	-13.4592	156.656	-31.1716	-42.76	144.616	-6.81399	-26.2043	166.024	-18.1221	1.44632	146.247	-38.7319	-29.3321	135.135	-15.3617	-13.0199	158.166	-20.9721	12.6185	139.494	-44.4966	-16.9204	128.386	-25.6676	-3.01423	148.554	-29.1221	22.8609	183.512	-65.6905	5.58382	185.907	-63.6958	40.5413	206.981	-43.0015	14.1632	
131	1.09167	204.769	-7.17694	18.1908	205.169	2.25999	-8.34742	200.335	1.68078	-42.3646	189.632	-1.93709	-60.9936	182.662	-20.207	-49.1482	158.562	2.32447	-47.9468	171.841	1.96577	-16.2961	162.559	-32.9768	-41.5815	143.66	-7.32904	-27.3163	164.138	-20.1818	2.6686	149.435	-40.8062	-28.6207	134.487	-17.065	-14.525	156.9	-22.145	12.2399	140.537	-48.0118	-17.7799	131.402	-25.885	-1.94505	146.62	-29.6976	22.4251	186.178	-62.6921	7.62002	191.034	-63.0175	35.9602	208.639	-40.6307	12.485	
132	1.1	203.51	2.14335	21.8602	201.425	8.54642	-8.63358	196.53	6.36842	-42.0305	183.923	-0.431388	-59.469	179.19	-21.91	-47.3865	153.816	-1.22378	-47.841	169.496	3.03763	-13.9234	165.431	-29.7637	-44.1904	140.263	-9.12344	-29.0291	159.568	-16.2041	1.86295	150.234	-40.2281	-29.9198	133.392	-19.9219	-17.0009	155.955	-19.251	10.6291	143.728	-52.3135	-17.1505	132.341	-28.0328	-2.36919	149.45	-31.4917	17.9948	189.592	-63.4679	7.6343	192.009	-60.4194	40.2155	212.003	-34.4379	17.2354	
133	1.10833	198.461	7.13694	22.5017	193.659	9.1601	-10.1446	188.582	9.9735	-36.4215	179.205	4.81455	-59.0392	178.935	-13.6799	-50.739	151.488	1.74531	-46.5177	160.488	-0.299322	-12.5394	161.404	-30.6352	-43.2105	139.828	-10.4803	-33.0384	157.246	-16.92	3.03937	152.691	-43.1012	-30.0133	131.439	-27.1486	-15.2999	150.323	-25.2063	12.951	143.68	-53.6712	-18.918	130.994	-34.341	-0.371694	149.348	-33.6435	17.3439	192.863	-57.7308	5.31017	199.383	-53.7145	34.5057	211.189	-26.0815	15.074	
134	1.11667	189.176	7.77915	24.8414	184.3	15.7371	-4.64352	181.46	20.1611	-38.35	174.213	11.979	-60.658	176.886	-11.1625	-48.6837	146.381	2.236	-46.642	155.502	1.22171	-11.2398	164.888	-25.2578	-44.8421	136.248	-16.085	-29.5577	159.793	-20.3328	5.24564	158.102	-40.7202	-32.8363	133.564	-31.3484	-17.4331	154.309	-23.7427	12.5928	155.359	-56.0441	-20.8415	136.566	-38.544	-4.01737	152.671	-36.5867	17.7803	202.137	-49.8445	5.8828	202.383	-47.9096	38.782	210.318	-20.8315	18.2472	
135	1.125	179.009	13.583	25.634	171.366	24.1031	-2.62192	167.585	25.3092	-34.8017	163.325	14.8651	-55.417	172.526	-0.0964197	-46.1817	139.417	-5.94149	-43.5862	146.405	-5.78646	-9.88729	163.442	-24.3823	-44.2677	135.559	-23.9366	-28.8424	153.914	-21.299	5.06522	160.798	-39.5773	-34.1984	137.372	-38.0614	-14.5524	151.668	-32.119	12.1726	164.743	-54.8717	-22.9063	141.747	-48.4041	-4.53271	157.219	-42.416	19.2562	206.768	-39.3809	0.878926	210.78	-38.052	36.6022	205.562	-7.285	15.0919	
136	1.13333	164.343	12.3182	32.4431	157.505	19.0753	2.32853	152.877	22.4659	-26.6644	151.821	16.5418	-50.8775	167.199	1.34305	-42.7877	133.187	-6.97794	-42.515	143.321	-10.2348	-7.53787	164.971	-20.1296	-42.6601	136.785	-27.6685	-31.1826	154.055	-24.9296	4.76142	170.597	-38.2922	-33.8902	145.51	-45.7187	-18.5465	156.138	-35.3926	13.647	175.025	-50.694	-26.6536	152.11	-53.8013	-7.76739	162.916	-42.336	16.7067	211.3	-24.6374	1.03903	212.113	-30.0872	36.9149	199.863	3.32309	19.247	
137	1.14167	151.9	7.44872	36.6586	143.7	16.0476	6.54042	138.605	23.547	-23.4423	139.111	15.9417	-44.1829	155.877	5.34896	-41.1251	130.16	-12.8733	-39.1176	135.94	-14.459	-5.62732	163.429	-14.6189	-40.3678	137.283	-32.6524	-26.0542	154.158	-23.5363	6.52629	171.422	-32.7617	-34.8276	148.942	-46.6154	-15.9417	158.86	-33.5853	13.8233	178.612	-43.4195	-27.1629	159.955	-53.5366	-10.7468	172.088	-45.2948	17.7053	210.932	-13.4275	5.7125	209.796	-13.7605	37.7263	186.561	12.2223	24.6482	
